/* XPM */
static char *graphic[] = {
"24 24 5 1",
". c None",
", c #000000",
"- c #FFFFFF",
"* c #FFFF00",
"a c #FF0000",
"........................",
"........................",
"..,,,,,,,,,,,,,,,,,,....",
"..,----------------,....",
"..,---,,-,,,,,,,,,-,....",
"..,---,,-,*******,-,....",
"..,--,-,-,*******,-,....",
"..,--,,,-,*******,-,....",
"..,-,--,-,*******,-,....",
"..,-,--,-,,,,,,,,,-,....",
"..,-----------,*,--,....",
"..,-a-,,,,,,,-,*,--,....",
"..,-----------,*,--,....",
"..,-a-,,,,,,,-,*,,,,,...",
"..,-----------,*,*,*,,..",
"..,-a-,,,,,--,,*,*,*,,..",
"..,---------,*,******,..",
"..,-a-,,,,,-,*,******,..",
"..,---------,*,******,..",
"..,----------,*******,..",
"..,,,,,,,,,,,,,*****,,..",
"...............,****,...",
"................,,,,....",
"........................"}
