/* XPM */
static char *graphic[] = {
"24 24 7 1",
". c None",
", c #000000",
"- c #FFFFFF",
"* c #FFFF00",
"a c #FF0000",
"b c #C6C6C6",
"c c #848484",
"........................",
"........................",
"..,,,,,,,,,,,,,,,,,,....",
"..,----------------,....",
"..,---,,-,,,,,,,,,-,....",
"..,---,,-,*******,-,....",
"..,--,-,-,*******,-,....",
"..,--,,,-,*******,-,....",
"..,-,--,-,*******,-,....",
"..,-,--,-,,,,,,,,,-,....",
"..,----------,,,,,,,,...",
"..,-a-,,,,,--,------,...",
"..,---------,-,-,,-,....",
"..,-a-,,,,--,--,*,-,....",
"..,--------,-,-,,-,,....",
"..,-a----,,,------,,,,..",
"..,----,,bc,,,,,,,,cb-,.",
"..,-a--,bbbbbbbbbbbb-c,.",
"..,---c-------------cc,.",
"..,---,-aabbbbbbbbbbcc,.",
"..,,,,,-bbbbbbbbbbbbc,..",
"......cbcccccccccccc,...",
".......,,,,,,,,,,,,,....",
"........................"}
