/* XPM */
static char *graphic[] = {
"24 24 5 1",
". c None",
", c #000000",
"- c #FFFF00",
"* c #FFFFFF",
"a c #FF0000",
"........................",
"........................",
"..,,,,,,,,,,,,,,,,,,....",
"..,................,....",
"..,...,,.,,,,,,,,,.,....",
"..,...,,.,-------,.,....",
"..,..,.,.,--*******,**..",
"..,..,,,.,**.,,,,,.*,*..",
"..,.,..,.*.,,,.**.,,,*..",
"..,.,..,.*,,,**,,*,,,*..",
"..,......*,,,*...*.,.*..",
"..,.a.,,,*,,,**...*,*...",
"..,......*,,,,***.***...",
"..,.a.,,,*.,,,,,**,,....",
"..,.......*.,,,,,,**....",
"..,.a.,,,,,**.,,,,,**...",
"..,.....***..**.,,,,*...",
"..,.a.,,*,*,,,.*.,,,*...",
"..,....*.,.*....*,,,*...",
"..,....*,,,.*..*.,,.*...",
"..,,,,,*,,,,.**.,,,*....",
".......*,*.,,,,,,.**....",
".......**.********......",
"........................"}
